<svg width="303" height="32" viewBox="0 0 303 32" fill="none" xmlns="http://www.w3.org/2000/svg">
<path d="M14.12 31.4C11.4267 31.4 9.06667 30.7733 7.04 29.52C5.04 28.2667 3.49333 26.5067 2.4 24.24C1.30667 21.9733 0.76 19.32 0.76 16.28C0.76 13.1333 1.33333 10.4133 2.48 8.12C3.62667 5.82666 5.22667 4.05333 7.28 2.8C9.36 1.54667 11.7733 0.919999 14.52 0.919999C16.68 0.919999 18.6133 1.33333 20.32 2.16C22.0267 2.98666 23.4 4.04 24.44 5.32C25.5067 6.6 26.1733 7.96 26.44 9.4C26.5467 9.8 26.56 10.0667 26.48 10.2C26.4267 10.3333 26.2667 10.4267 26 10.48L20.72 11.28C20.48 11.28 20.32 11.2267 20.24 11.12C20.1867 11.0133 20.1333 10.8533 20.08 10.64C19.92 9.76 19.5867 8.96 19.08 8.24C18.6 7.52 17.96 6.94667 17.16 6.52C16.3867 6.06667 15.4533 5.84 14.36 5.84C13.0533 5.84 11.92 6.18667 10.96 6.88C10.0267 7.57333 9.30667 8.66667 8.8 10.16C8.32 11.6533 8.08 13.6133 8.08 16.04C8.08 18.6 8.33333 20.64 8.84 22.16C9.37333 23.68 10.12 24.7867 11.08 25.48C12.0667 26.1467 13.24 26.48 14.6 26.48C15.4533 26.48 16.2 26.36 16.84 26.12C17.5067 25.8533 18.0667 25.5067 18.52 25.08C19 24.6533 19.3867 24.1733 19.68 23.64C19.9733 23.08 20.1867 22.5067 20.32 21.92L20.4 20.76C20.5067 20.36 20.3733 20.16 20 20.16H15.16C14.9467 20.16 14.7867 20.12 14.68 20.04C14.5733 19.9333 14.52 19.7467 14.52 19.48V16.48C14.52 16.1067 14.7333 15.92 15.16 15.92L25.84 15.96C26.24 15.96 26.5333 16.0533 26.72 16.24C26.9067 16.4 27 16.6267 27 16.92V30.4C27 30.5867 26.9467 30.7333 26.84 30.84C26.7333 30.9467 26.5867 31 26.4 31H25.12C24.9067 31 24.72 30.96 24.56 30.88C24.4 30.7733 24.24 30.6 24.08 30.36L22.92 27.48C22.8933 27.4 22.84 27.36 22.76 27.36C22.7067 27.36 22.6267 27.4267 22.52 27.56C22.04 28.1467 21.44 28.7467 20.72 29.36C20 29.9467 19.1067 30.44 18.04 30.84C16.9733 31.2133 15.6667 31.4 14.12 31.4ZM44.5981 31.4C41.7715 31.4 39.3315 30.8 37.2781 29.6C35.2248 28.3733 33.6381 26.6267 32.5181 24.36C31.4248 22.0933 30.8781 19.4 30.8781 16.28C30.8781 13.1067 31.4381 10.3733 32.5581 8.08C33.7048 5.78667 35.3048 4.02667 37.3581 2.8C39.4115 1.54667 41.8248 0.919999 44.5981 0.919999C47.3715 0.919999 49.7715 1.54667 51.7981 2.8C53.8515 4.02667 55.4381 5.78667 56.5581 8.08C57.6781 10.3467 58.2381 13.0667 58.2381 16.24C58.2381 19.36 57.6781 22.0533 56.5581 24.32C55.4648 26.5867 53.8915 28.3333 51.8381 29.56C49.7848 30.7867 47.3715 31.4 44.5981 31.4ZM44.5981 26.48C46.7848 26.48 48.3848 25.6933 49.3981 24.12C50.4115 22.52 50.9181 19.92 50.9181 16.32C50.9181 12.64 50.3981 9.97333 49.3581 8.32C48.3448 6.64 46.7581 5.8 44.5981 5.8C42.4115 5.8 40.7981 6.64 39.7581 8.32C38.7181 10 38.1981 12.6667 38.1981 16.32C38.1981 19.8933 38.7048 22.48 39.7181 24.08C40.7581 25.68 42.3848 26.48 44.5981 26.48ZM75.5747 31.4C72.748 31.4 70.308 30.8 68.2547 29.6C66.2014 28.3733 64.6147 26.6267 63.4947 24.36C62.4014 22.0933 61.8547 19.4 61.8547 16.28C61.8547 13.1067 62.4147 10.3733 63.5347 8.08C64.6814 5.78667 66.2814 4.02667 68.3347 2.8C70.388 1.54667 72.8014 0.919999 75.5747 0.919999C78.348 0.919999 80.748 1.54667 82.7747 2.8C84.828 4.02667 86.4147 5.78667 87.5347 8.08C88.6547 10.3467 89.2147 13.0667 89.2147 16.24C89.2147 19.36 88.6547 22.0533 87.5347 24.32C86.4414 26.5867 84.868 28.3333 82.8147 29.56C80.7614 30.7867 78.348 31.4 75.5747 31.4ZM75.5747 26.48C77.7614 26.48 79.3614 25.6933 80.3747 24.12C81.388 22.52 81.8947 19.92 81.8947 16.32C81.8947 12.64 81.3747 9.97333 80.3347 8.32C79.3214 6.64 77.7347 5.8 75.5747 5.8C73.388 5.8 71.7747 6.64 70.7347 8.32C69.6947 10 69.1747 12.6667 69.1747 16.32C69.1747 19.8933 69.6814 22.48 70.6947 24.08C71.7347 25.68 73.3614 26.48 75.5747 26.48ZM94.7113 1.32C95.1913 1.32 95.8313 1.32 96.6313 1.32C97.4579 1.32 98.3113 1.32 99.1913 1.32C100.098 1.32 100.951 1.32 101.751 1.32C102.551 1.32 103.178 1.33333 103.631 1.36C107.231 1.44 110.191 2.09333 112.511 3.32C114.831 4.54667 116.538 6.24 117.631 8.4C118.751 10.5333 119.311 13.08 119.311 16.04C119.311 19.08 118.725 21.7333 117.551 24C116.405 26.24 114.645 27.9733 112.271 29.2C109.925 30.4 106.978 31 103.431 31H94.7513C94.1379 31 93.8313 30.68 93.8313 30.04V2.16C93.8313 1.84 93.8979 1.62666 94.0313 1.52C94.1646 1.38666 94.3913 1.32 94.7113 1.32ZM101.231 6.28C100.965 6.28 100.831 6.46667 100.831 6.84V25.52C100.831 25.8933 101.005 26.08 101.351 26.08H102.111C104.298 26.08 106.125 25.76 107.591 25.12C109.058 24.4533 110.151 23.3867 110.871 21.92C111.618 20.4533 111.991 18.5067 111.991 16.08C111.991 13.7333 111.645 11.8533 110.951 10.44C110.285 9 109.245 7.94667 107.831 7.28C106.445 6.61333 104.671 6.28 102.511 6.28H101.231ZM132.113 2.08C132.113 1.57333 132.326 1.32 132.753 1.32H152.913C153.313 1.32 153.513 1.54667 153.513 2L153.473 5.6C153.473 6.16 153.193 6.44 152.633 6.44H139.872C139.366 6.44 139.113 6.65333 139.113 7.08V12.88C139.113 13.3333 139.313 13.56 139.713 13.56H148.193C148.646 13.56 148.873 13.7733 148.873 14.2V18.04C148.873 18.2 148.819 18.3333 148.713 18.44C148.633 18.5467 148.473 18.6 148.233 18.6H139.673C139.299 18.6 139.113 18.76 139.113 19.08V25.36C139.113 25.7067 139.259 25.88 139.553 25.88H153.233C153.713 25.88 153.953 26.08 153.953 26.48V30.28C153.953 30.4933 153.886 30.6667 153.753 30.8C153.646 30.9333 153.446 31 153.153 31H132.993C132.406 31 132.113 30.72 132.113 30.16V2.08ZM182.524 1.32C182.871 1.32 183.044 1.52 183.044 1.92V30.36C183.044 30.5467 182.978 30.7067 182.844 30.84C182.711 30.9467 182.524 31 182.284 31H178.244C178.031 31 177.858 30.9733 177.724 30.92C177.591 30.8667 177.431 30.7333 177.244 30.52L164.484 12.6C164.378 12.4667 164.271 12.4133 164.164 12.44C164.084 12.4667 164.044 12.5467 164.044 12.68V30.28C164.071 30.76 163.804 31 163.244 31H159.084C158.551 31 158.284 30.7733 158.284 30.32V2.08C158.284 1.57333 158.524 1.32 159.004 1.32H163.844C164.138 1.32 164.351 1.36 164.484 1.44C164.644 1.52 164.818 1.68 165.004 1.92L176.764 18.68C176.924 18.8933 177.058 18.9867 177.164 18.96C177.298 18.9333 177.364 18.8 177.364 18.56V2.04C177.364 1.56 177.604 1.32 178.084 1.32H182.524ZM201.356 31.4C198.529 31.4 196.089 30.8 194.036 29.6C191.983 28.3733 190.396 26.6267 189.276 24.36C188.183 22.0933 187.636 19.4 187.636 16.28C187.636 13.1067 188.196 10.3733 189.316 8.08C190.463 5.78667 192.063 4.02667 194.116 2.8C196.169 1.54667 198.583 0.919999 201.356 0.919999C204.129 0.919999 206.529 1.54667 208.556 2.8C210.609 4.02667 212.196 5.78667 213.316 8.08C214.436 10.3467 214.996 13.0667 214.996 16.24C214.996 19.36 214.436 22.0533 213.316 24.32C212.223 26.5867 210.649 28.3333 208.596 29.56C206.543 30.7867 204.129 31.4 201.356 31.4ZM201.356 26.48C203.543 26.48 205.143 25.6933 206.156 24.12C207.169 22.52 207.676 19.92 207.676 16.32C207.676 12.64 207.156 9.97333 206.116 8.32C205.103 6.64 203.516 5.8 201.356 5.8C199.169 5.8 197.556 6.64 196.516 8.32C195.476 10 194.956 12.6667 194.956 16.32C194.956 19.8933 195.463 22.48 196.476 24.08C197.516 25.68 199.143 26.48 201.356 26.48ZM243.173 20C243.173 22.8 242.693 25.04 241.733 26.72C240.773 28.4 239.399 29.6 237.613 30.32C235.826 31.04 233.693 31.4 231.213 31.4C228.306 31.4 225.973 30.9467 224.213 30.04C222.479 29.1067 221.213 27.7467 220.413 25.96C219.639 24.1467 219.253 21.92 219.253 19.28V2.12C219.253 1.58666 219.466 1.32 219.893 1.32H225.653C226.053 1.32 226.253 1.56 226.253 2.04V20.16C226.253 22.3467 226.719 23.9333 227.653 24.92C228.613 25.9067 229.973 26.4 231.733 26.4C232.853 26.4 233.839 26.2 234.693 25.8C235.546 25.3733 236.213 24.6933 236.693 23.76C237.173 22.8267 237.413 21.5867 237.413 20.04V2.08C237.413 1.57333 237.613 1.32 238.013 1.32H242.573C242.973 1.32 243.173 1.56 243.173 2.04V20ZM260.761 31.4C258.067 31.4 255.707 30.7733 253.681 29.52C251.681 28.2667 250.134 26.5067 249.041 24.24C247.947 21.9733 247.401 19.32 247.401 16.28C247.401 13.1333 247.974 10.4133 249.121 8.12C250.267 5.82666 251.867 4.05333 253.921 2.8C256.001 1.54667 258.414 0.919999 261.161 0.919999C263.321 0.919999 265.254 1.33333 266.961 2.16C268.667 2.98666 270.041 4.04 271.081 5.32C272.147 6.6 272.814 7.96 273.081 9.4C273.187 9.8 273.201 10.0667 273.121 10.2C273.067 10.3333 272.907 10.4267 272.641 10.48L267.361 11.28C267.121 11.28 266.961 11.2267 266.881 11.12C266.827 11.0133 266.774 10.8533 266.721 10.64C266.561 9.76 266.227 8.96 265.721 8.24C265.241 7.52 264.601 6.94667 263.801 6.52C263.027 6.06667 262.094 5.84 261.001 5.84C259.694 5.84 258.561 6.18667 257.601 6.88C256.667 7.57333 255.947 8.66667 255.441 10.16C254.961 11.6533 254.721 13.6133 254.721 16.04C254.721 18.6 254.974 20.64 255.481 22.16C256.014 23.68 256.761 24.7867 257.721 25.48C258.707 26.1467 259.881 26.48 261.241 26.48C262.094 26.48 262.841 26.36 263.481 26.12C264.147 25.8533 264.707 25.5067 265.161 25.08C265.641 24.6533 266.027 24.1733 266.321 23.64C266.614 23.08 266.827 22.5067 266.961 21.92L267.041 20.76C267.147 20.36 267.014 20.16 266.641 20.16H261.801C261.587 20.16 261.427 20.12 261.321 20.04C261.214 19.9333 261.161 19.7467 261.161 19.48V16.48C261.161 16.1067 261.374 15.92 261.801 15.92L272.481 15.96C272.881 15.96 273.174 16.0533 273.361 16.24C273.547 16.4 273.641 16.6267 273.641 16.92V30.4C273.641 30.5867 273.587 30.7333 273.481 30.84C273.374 30.9467 273.227 31 273.041 31H271.761C271.547 31 271.361 30.96 271.201 30.88C271.041 30.7733 270.881 30.6 270.721 30.36L269.561 27.48C269.534 27.4 269.481 27.36 269.401 27.36C269.347 27.36 269.267 27.4267 269.161 27.56C268.681 28.1467 268.081 28.7467 267.361 29.36C266.641 29.9467 265.747 30.44 264.681 30.84C263.614 31.2133 262.307 31.4 260.761 31.4ZM286.039 18.32C285.692 18.32 285.519 18.4933 285.519 18.84V30.08C285.519 30.6933 285.159 31 284.439 31H279.399C279.052 31 278.812 30.9333 278.679 30.8C278.572 30.6667 278.519 30.4533 278.519 30.16V2.08C278.519 1.57333 278.732 1.32 279.159 1.32H284.879C285.305 1.32 285.519 1.56 285.519 2.04V12.28C285.519 12.7333 285.719 12.96 286.119 12.96H295.359C295.785 12.96 295.999 12.7467 295.999 12.32V2.04C295.999 1.56 296.199 1.32 296.599 1.32H302.319C302.772 1.32 302.999 1.57333 302.999 2.08V30.16C302.999 30.4533 302.932 30.6667 302.799 30.8C302.692 30.9333 302.465 31 302.119 31H297.039C296.345 31 295.999 30.6933 295.999 30.08V18.84C295.999 18.4933 295.812 18.32 295.439 18.32H286.039Z" fill="white"/>
</svg>
